<svg width="42" height="31" viewBox="0 0 42 31" fill="none" xmlns="http://www.w3.org/2000/svg">
<path d="M20.9409 22.001C18.6211 22.001 16.7409 23.9602 16.7409 26.3767C16.7409 28.7932 18.6218 30.7523 20.9409 30.7523C23.2601 30.7523 25.1409 28.7932 25.1409 26.3767C25.1409 23.9602 23.3166 22.001 20.9409 22.001ZM21 11.0635C16.3898 11.0635 11.9503 12.8135 8.49844 15.9874C7.63219 16.8467 7.54688 18.2275 8.31469 19.1367C9.08906 20.0391 10.4147 20.1279 11.2809 19.3281C13.965 16.8604 17.4169 15.5 21 15.5C24.5831 15.5 28.0416 16.859 30.7191 19.3281C31.1194 19.6973 31.6181 19.875 32.1103 19.875C32.4081 19.8752 32.7026 19.8095 32.9742 19.6821C33.2457 19.5547 33.4881 19.3685 33.6853 19.136C34.4531 18.2275 34.3744 16.8467 33.5016 16.0469C30.0497 12.875 25.6134 11.0635 21 11.0635ZM41.3569 8.71191C35.8509 3.21445 28.6256 0.1875 21 0.1875C13.3744 0.1875 6.14841 3.21445 0.646015 8.71191C-0.190704 9.54932 -0.21761 10.9336 0.584459 11.8052C1.3864 12.6788 2.7153 12.7021 3.55399 11.8693C8.20969 7.09863 14.4638 4.5625 21 4.5625C27.5363 4.5625 33.6722 7.1581 38.4431 11.8701C38.8566 12.2734 39.375 12.4785 39.9 12.4785C40.4516 12.4785 41.0032 12.2542 41.4153 11.8056C42.2166 10.9336 42.1903 9.49121 41.3569 8.71191Z" fill="#89A2FA"/>
</svg>
